<svg xmlns="http://www.w3.org/2000/svg" xmlns:xlink="http://www.w3.org/1999/xlink" version="1.1" width="256" height="256" viewBox="0 0 256 256" xml:space="preserve">

<defs>
</defs>
<g style="stroke: none; stroke-width: 0; stroke-dasharray: none; stroke-linecap: butt; stroke-linejoin: miter; stroke-miterlimit: 10; fill: none; fill-rule: nonzero; opacity: 1;" transform="translate(1.4065934065934016 1.4065934065934016) scale(2.81 2.81)" >
	<path d="M 65.591 11.377 H 24.41 c -0.552 0 -1 -0.448 -1 -1 s 0.448 -1 1 -1 h 41.181 c 0.553 0 1 0.448 1 1 S 66.144 11.377 65.591 11.377 z" style="stroke: none; stroke-width: 1; stroke-dasharray: none; stroke-linecap: butt; stroke-linejoin: miter; stroke-miterlimit: 10; fill: rgb(0,0,0); fill-rule: nonzero; opacity: 1;" transform=" matrix(1 0 0 1 0 0) " stroke-linecap="round" />
	<path d="M 89 29.068 H 1 c -0.552 0 -1 -0.448 -1 -1 v -9.292 c 0 -5.182 4.216 -9.398 9.398 -9.398 H 16.1 c 0.552 0 1 0.448 1 1 s -0.448 1 -1 1 H 9.398 C 5.319 11.377 2 14.696 2 18.775 v 8.292 h 86 v -8.292 c 0 -4.08 -3.319 -7.398 -7.398 -7.398 h -6.702 c -0.553 0 -1 -0.448 -1 -1 s 0.447 -1 1 -1 h 6.702 c 5.183 0 9.398 4.216 9.398 9.398 v 9.292 C 90 28.62 89.553 29.068 89 29.068 z" style="stroke: none; stroke-width: 1; stroke-dasharray: none; stroke-linecap: butt; stroke-linejoin: miter; stroke-miterlimit: 10; fill: rgb(0,0,0); fill-rule: nonzero; opacity: 1;" transform=" matrix(1 0 0 1 0 0) " stroke-linecap="round" />
	<path d="M 48 89.081 H 9.398 C 4.216 89.081 0 84.865 0 79.683 V 28.068 c 0 -0.552 0.448 -1 1 -1 h 88 c 0.553 0 1 0.448 1 1 v 20.17 c 0 0.553 -0.447 1 -1 1 s -1 -0.447 -1 -1 v -19.17 H 2 v 50.615 c 0 4.079 3.319 7.398 7.398 7.398 H 48 c 0.553 0 1 0.447 1 1 S 48.553 89.081 48 89.081 z" style="stroke: none; stroke-width: 1; stroke-dasharray: none; stroke-linecap: butt; stroke-linejoin: miter; stroke-miterlimit: 10; fill: rgb(0,0,0); fill-rule: nonzero; opacity: 1;" transform=" matrix(1 0 0 1 0 0) " stroke-linecap="round" />
	<path d="M 22.75 52.791 H 17.76 c -2.06 0 -3.736 -1.676 -3.736 -3.735 v -4.989 c 0 -2.06 1.676 -3.736 3.736 -3.736 h 4.989 c 2.06 0 3.736 1.676 3.736 3.736 v 4.989 C 26.485 51.115 24.81 52.791 22.75 52.791 z M 17.76 42.33 c -0.957 0 -1.736 0.779 -1.736 1.736 v 4.989 c 0 0.957 0.779 1.735 1.736 1.735 h 4.989 c 0.957 0 1.736 -0.778 1.736 -1.735 v -4.989 c 0 -0.958 -0.779 -1.736 -1.736 -1.736 H 17.76 z" style="stroke: none; stroke-width: 1; stroke-dasharray: none; stroke-linecap: butt; stroke-linejoin: miter; stroke-miterlimit: 10; fill: rgb(0,0,0); fill-rule: nonzero; opacity: 1;" transform=" matrix(1 0 0 1 0 0) " stroke-linecap="round" />
	<path d="M 47.494 52.791 h -4.989 c -2.06 0 -3.736 -1.676 -3.736 -3.735 v -4.989 c 0 -2.06 1.676 -3.736 3.736 -3.736 h 4.989 c 2.061 0 3.736 1.676 3.736 3.736 v 4.989 C 51.23 51.115 49.555 52.791 47.494 52.791 z M 42.505 42.33 c -0.957 0 -1.736 0.779 -1.736 1.736 v 4.989 c 0 0.957 0.779 1.735 1.736 1.735 h 4.989 c 0.957 0 1.736 -0.778 1.736 -1.735 v -4.989 c 0 -0.958 -0.779 -1.736 -1.736 -1.736 H 42.505 z" style="stroke: none; stroke-width: 1; stroke-dasharray: none; stroke-linecap: butt; stroke-linejoin: miter; stroke-miterlimit: 10; fill: rgb(0,0,0); fill-rule: nonzero; opacity: 1;" transform=" matrix(1 0 0 1 0 0) " stroke-linecap="round" />
	<path d="M 22.75 74.309 H 17.76 c -2.06 0 -3.736 -1.676 -3.736 -3.735 v -4.989 c 0 -2.061 1.676 -3.736 3.736 -3.736 h 4.989 c 2.06 0 3.736 1.676 3.736 3.736 v 4.989 C 26.485 72.633 24.81 74.309 22.75 74.309 z M 17.76 63.848 c -0.957 0 -1.736 0.779 -1.736 1.736 v 4.989 c 0 0.957 0.779 1.735 1.736 1.735 h 4.989 c 0.957 0 1.736 -0.778 1.736 -1.735 v -4.989 c 0 -0.957 -0.779 -1.736 -1.736 -1.736 H 17.76 z" style="stroke: none; stroke-width: 1; stroke-dasharray: none; stroke-linecap: butt; stroke-linejoin: miter; stroke-miterlimit: 10; fill: rgb(0,0,0); fill-rule: nonzero; opacity: 1;" transform=" matrix(1 0 0 1 0 0) " stroke-linecap="round" />
	<path d="M 21.673 19.835 h -2.837 c -2.06 0 -3.736 -1.676 -3.736 -3.736 V 4.655 c 0 -2.06 1.676 -3.736 3.736 -3.736 h 2.837 c 2.06 0 3.736 1.676 3.736 3.736 v 11.444 C 25.41 18.159 23.733 19.835 21.673 19.835 z M 18.836 2.919 c -0.958 0 -1.736 0.779 -1.736 1.736 v 11.444 c 0 0.958 0.779 1.736 1.736 1.736 h 2.837 c 0.958 0 1.736 -0.779 1.736 -1.736 V 4.655 c 0 -0.957 -0.779 -1.736 -1.736 -1.736 H 18.836 z" style="stroke: none; stroke-width: 1; stroke-dasharray: none; stroke-linecap: butt; stroke-linejoin: miter; stroke-miterlimit: 10; fill: rgb(0,0,0); fill-rule: nonzero; opacity: 1;" transform=" matrix(1 0 0 1 0 0) " stroke-linecap="round" />
	<path d="M 71.164 19.835 h -2.838 c -2.06 0 -3.735 -1.676 -3.735 -3.736 V 4.655 c 0 -2.06 1.676 -3.736 3.735 -3.736 h 2.838 c 2.06 0 3.735 1.676 3.735 3.736 v 11.444 C 74.899 18.159 73.224 19.835 71.164 19.835 z M 68.326 2.919 c -0.957 0 -1.735 0.779 -1.735 1.736 v 11.444 c 0 0.958 0.778 1.736 1.735 1.736 h 2.838 c 0.957 0 1.735 -0.779 1.735 -1.736 V 4.655 c 0 -0.957 -0.778 -1.736 -1.735 -1.736 H 68.326 z" style="stroke: none; stroke-width: 1; stroke-dasharray: none; stroke-linecap: butt; stroke-linejoin: miter; stroke-miterlimit: 10; fill: rgb(0,0,0); fill-rule: nonzero; opacity: 1;" transform=" matrix(1 0 0 1 0 0) " stroke-linecap="round" />
	<path d="M 70.855 89.081 c -10.557 0 -19.146 -8.588 -19.146 -19.145 s 8.589 -19.146 19.146 -19.146 S 90 59.38 90 69.937 S 81.412 89.081 70.855 89.081 z M 70.855 52.791 c -9.454 0 -17.146 7.691 -17.146 17.146 c 0 9.453 7.691 17.145 17.146 17.145 C 80.309 87.081 88 79.39 88 69.937 C 88 60.482 80.309 52.791 70.855 52.791 z" style="stroke: none; stroke-width: 1; stroke-dasharray: none; stroke-linecap: butt; stroke-linejoin: miter; stroke-miterlimit: 10; fill: rgb(0,0,0); fill-rule: nonzero; opacity: 1;" transform=" matrix(1 0 0 1 0 0) " stroke-linecap="round" />
	<path d="M 69.855 77.351 c -0.259 0 -0.509 -0.101 -0.696 -0.282 l -6.714 -6.511 c -0.396 -0.385 -0.406 -1.018 -0.021 -1.414 c 0.386 -0.396 1.018 -0.406 1.414 -0.021 l 5.918 5.738 l 8.247 -10.48 c 0.341 -0.434 0.972 -0.508 1.404 -0.168 c 0.435 0.342 0.509 0.971 0.168 1.404 l -8.934 11.353 c -0.176 0.223 -0.437 0.36 -0.719 0.38 C 69.9 77.35 69.878 77.351 69.855 77.351 z" style="stroke: none; stroke-width: 1; stroke-dasharray: none; stroke-linecap: butt; stroke-linejoin: miter; stroke-miterlimit: 10; fill: rgb(0,0,0); fill-rule: nonzero; opacity: 1;" transform=" matrix(1 0 0 1 0 0) " stroke-linecap="round" />
</g>
</svg>