<svg xmlns="http://www.w3.org/2000/svg" xmlns:xlink="http://www.w3.org/1999/xlink" version="1.1" width="256" height="256" viewBox="0 0 256 256" xml:space="preserve">

<defs>
</defs>
<g style="stroke: none; stroke-width: 0; stroke-dasharray: none; stroke-linecap: butt; stroke-linejoin: miter; stroke-miterlimit: 10; fill: none; fill-rule: nonzero; opacity: 1;" transform="translate(1.4065934065934016 1.4065934065934016) scale(2.81 2.81)" >
	<path d="M 22.282 18.021 h 2.989 v 2.989 c 0 0.552 0.448 1 1 1 s 1 -0.448 1 -1 v -2.989 h 2.989 c 0.552 0 1 -0.448 1 -1 s -0.448 -1 -1 -1 h -2.989 v -2.989 c 0 -0.552 -0.448 -1 -1 -1 s -1 0.448 -1 1 v 2.989 h -2.989 c -0.552 0 -1 0.448 -1 1 S 21.729 18.021 22.282 18.021 z" style="stroke: none; stroke-width: 1; stroke-dasharray: none; stroke-linecap: butt; stroke-linejoin: miter; stroke-miterlimit: 10; fill: rgb(0,0,0); fill-rule: nonzero; opacity: 1;" transform=" matrix(1 0 0 1 0 0) " stroke-linecap="round" />
	<path d="M 37.506 18.021 h 21.837 c 0.553 0 1 -0.448 1 -1 s -0.447 -1 -1 -1 H 37.506 c -0.552 0 -1 0.448 -1 1 S 36.954 18.021 37.506 18.021 z" style="stroke: none; stroke-width: 1; stroke-dasharray: none; stroke-linecap: butt; stroke-linejoin: miter; stroke-miterlimit: 10; fill: rgb(0,0,0); fill-rule: nonzero; opacity: 1;" transform=" matrix(1 0 0 1 0 0) " stroke-linecap="round" />
	<path d="M 22.282 27.982 h 37.062 c 0.553 0 1 -0.448 1 -1 s -0.447 -1 -1 -1 H 22.282 c -0.552 0 -1 0.448 -1 1 S 21.729 27.982 22.282 27.982 z" style="stroke: none; stroke-width: 1; stroke-dasharray: none; stroke-linecap: butt; stroke-linejoin: miter; stroke-miterlimit: 10; fill: rgb(0,0,0); fill-rule: nonzero; opacity: 1;" transform=" matrix(1 0 0 1 0 0) " stroke-linecap="round" />
	<path d="M 59.344 35.354 H 42.245 c -0.552 0 -1 0.448 -1 1 s 0.448 1 1 1 h 17.099 c 0.553 0 1 -0.448 1 -1 S 59.896 35.354 59.344 35.354 z" style="stroke: none; stroke-width: 1; stroke-dasharray: none; stroke-linecap: butt; stroke-linejoin: miter; stroke-miterlimit: 10; fill: rgb(0,0,0); fill-rule: nonzero; opacity: 1;" transform=" matrix(1 0 0 1 0 0) " stroke-linecap="round" />
	<path d="M 29.794 83.809 c 5.499 0 9.972 -4.474 9.972 -9.972 c 0 -5.499 -4.474 -9.973 -9.972 -9.973 s -9.972 4.474 -9.972 9.973 C 19.823 79.335 24.296 83.809 29.794 83.809 z M 29.794 65.864 c 4.396 0 7.972 3.576 7.972 7.973 c 0 4.396 -3.576 7.972 -7.972 7.972 c -4.396 0 -7.972 -3.576 -7.972 -7.972 C 21.823 69.44 25.399 65.864 29.794 65.864 z" style="stroke: none; stroke-width: 1; stroke-dasharray: none; stroke-linecap: butt; stroke-linejoin: miter; stroke-miterlimit: 10; fill: rgb(0,0,0); fill-rule: nonzero; opacity: 1;" transform=" matrix(1 0 0 1 0 0) " stroke-linecap="round" />
	<path d="M 30.133 77.192 c -0.598 0.228 -1.27 -0.079 -1.495 -0.68 c -0.194 -0.517 -0.77 -0.776 -1.288 -0.585 c -0.517 0.194 -0.779 0.771 -0.585 1.288 c 0.357 0.951 1.126 1.63 2.029 1.909 v 0.348 c 0 0.553 0.448 1 1 1 s 1 -0.447 1 -1 v -0.396 c 0.014 -0.005 0.027 -0.006 0.041 -0.011 c 0.791 -0.297 1.418 -0.883 1.768 -1.652 c 0.35 -0.769 0.379 -1.627 0.082 -2.418 c -0.352 -0.938 -1.106 -1.638 -2.007 -1.9 l -1.142 -0.416 c -0.354 -0.104 -0.631 -0.36 -0.76 -0.702 c -0.225 -0.6 0.081 -1.271 0.68 -1.496 c 0.6 -0.222 1.27 0.08 1.495 0.681 c 0.194 0.518 0.771 0.778 1.288 0.585 c 0.517 -0.194 0.779 -0.771 0.585 -1.288 c -0.357 -0.95 -1.129 -1.614 -2.03 -1.895 v -0.362 c 0 -0.553 -0.448 -1 -1 -1 s -1 0.447 -1 1 v 0.396 c -0.014 0.005 -0.027 0.006 -0.041 0.011 c -1.631 0.613 -2.461 2.439 -1.85 4.071 c 0.352 0.938 1.106 1.637 2.007 1.899 l 1.142 0.416 c 0.354 0.104 0.631 0.36 0.76 0.704 c 0.109 0.29 0.098 0.605 -0.03 0.888 S 30.424 77.084 30.133 77.192 z" style="stroke: none; stroke-width: 1; stroke-dasharray: none; stroke-linecap: butt; stroke-linejoin: miter; stroke-miterlimit: 10; fill: rgb(0,0,0); fill-rule: nonzero; opacity: 1;" transform=" matrix(1 0 0 1 0 0) " stroke-linecap="round" />
	<path d="M 75.877 72.8 l -1.23 -0.447 c -0.409 -0.121 -0.729 -0.417 -0.877 -0.813 c -0.126 -0.335 -0.113 -0.698 0.034 -1.024 c 0.148 -0.326 0.414 -0.574 0.749 -0.7 s 0.7 -0.114 1.025 0.035 c 0.325 0.147 0.574 0.413 0.699 0.748 c 0.193 0.517 0.771 0.779 1.287 0.586 c 0.518 -0.193 0.779 -0.771 0.586 -1.287 c -0.313 -0.836 -0.933 -1.499 -1.745 -1.868 c -0.148 -0.067 -0.302 -0.111 -0.456 -0.156 v -0.448 c 0 -0.553 -0.447 -1 -1 -1 s -1 0.447 -1 1 v 0.49 c -0.033 0.011 -0.066 0.014 -0.099 0.026 c -1.725 0.647 -2.601 2.576 -1.954 4.301 c 0.372 0.989 1.169 1.729 2.124 2.008 l 1.23 0.447 c 0.409 0.121 0.729 0.417 0.877 0.813 c 0.126 0.335 0.113 0.698 -0.034 1.024 c -0.148 0.325 -0.414 0.574 -0.75 0.699 c -0.336 0.127 -0.698 0.114 -1.024 -0.034 c -0.325 -0.148 -0.574 -0.414 -0.699 -0.749 c -0.193 -0.516 -0.771 -0.779 -1.287 -0.586 c -0.518 0.193 -0.779 0.771 -0.586 1.287 c 0.313 0.836 0.933 1.499 1.745 1.868 c 0.148 0.068 0.303 0.107 0.457 0.152 v 0.452 c 0 0.553 0.447 1 1 1 s 1 -0.447 1 -1 v -0.491 c 0.032 -0.011 0.065 -0.015 0.097 -0.027 c 0.836 -0.313 1.499 -0.933 1.868 -1.745 c 0.369 -0.812 0.4 -1.719 0.087 -2.555 C 77.63 73.818 76.833 73.079 75.877 72.8 z" style="stroke: none; stroke-width: 1; stroke-dasharray: none; stroke-linecap: butt; stroke-linejoin: miter; stroke-miterlimit: 10; fill: rgb(0,0,0); fill-rule: nonzero; opacity: 1;" transform=" matrix(1 0 0 1 0 0) " stroke-linecap="round" />
	<path d="M 77.862 58.762 v -0.4 c 0 -0.739 -0.19 -1.386 -0.5 -1.884 c 0.31 -0.507 0.5 -1.163 0.5 -1.911 v -2.413 c 0 -0.739 -0.19 -1.386 -0.5 -1.884 c 0.31 -0.507 0.5 -1.163 0.5 -1.911 v -2.413 c 0 -1.634 -0.896 -2.866 -2.082 -2.866 H 66.56 V 11.254 h 14.662 c 0.553 0 1 -0.448 1 -1 c 0 -4.869 -3.962 -8.831 -8.831 -8.831 H 24.156 c -4.87 0 -8.831 3.961 -8.831 8.831 v 32.412 l -1.696 2.891 l -4.1 -1.057 c -0.258 -0.068 -0.53 -0.028 -0.758 0.107 c -0.05 0.03 -0.084 0.077 -0.128 0.114 c -0.055 0.046 -0.116 0.085 -0.16 0.143 c -0.079 0.105 -0.139 0.225 -0.172 0.354 L 4.733 59.097 H 1 c -0.552 0 -1 0.447 -1 1 v 6.948 v 13.583 v 6.948 c 0 0.553 0.448 1 1 1 h 6.948 h 43.789 c 0.07 0 0.132 -0.026 0.198 -0.04 h 22.216 c 0.001 0 0.001 0 0.002 0 c 0.265 0.014 0.527 0.04 0.796 0.04 C 83.248 88.576 90 81.824 90 73.525 C 90 66.223 84.771 60.123 77.862 58.762 z M 73.548 58.545 c -0.178 0.017 -0.352 0.044 -0.528 0.067 c -0.279 0.036 -0.557 0.076 -0.834 0.128 c -0.209 0.039 -0.414 0.084 -0.62 0.132 c -0.24 0.056 -0.479 0.117 -0.716 0.184 c -0.208 0.059 -0.416 0.119 -0.62 0.187 c -0.245 0.081 -0.485 0.173 -0.725 0.266 c -0.18 0.07 -0.361 0.135 -0.537 0.212 c -0.351 0.152 -0.694 0.32 -1.033 0.498 c -0.056 0.03 -0.115 0.054 -0.17 0.084 c -0.413 0.224 -0.814 0.47 -1.206 0.733 c -0.037 0.025 -0.072 0.054 -0.11 0.079 c -0.277 0.19 -0.552 0.382 -0.817 0.59 H 51.854 c -0.088 -0.116 -0.235 -0.436 -0.235 -0.931 v -2.412 c 0 -0.451 0.13 -0.748 0.212 -0.865 H 75.65 c 0.082 0.116 0.212 0.414 0.212 0.865 v 0.145 c -0.316 -0.022 -0.617 -0.033 -0.913 -0.033 C 74.48 58.474 74.012 58.501 73.548 58.545 z M 63.146 64.214 c -0.176 0.224 -0.349 0.45 -0.512 0.684 c -0.124 0.177 -0.242 0.358 -0.359 0.541 c -0.11 0.173 -0.216 0.347 -0.319 0.524 c -0.136 0.232 -0.267 0.466 -0.39 0.706 c -0.06 0.117 -0.114 0.235 -0.171 0.354 c -0.141 0.293 -0.279 0.586 -0.401 0.889 h -9.14 c -0.088 -0.116 -0.235 -0.435 -0.235 -0.93 V 64.57 c 0 -0.451 0.13 -0.748 0.212 -0.865 h 11.717 c -0.045 0.052 -0.084 0.11 -0.128 0.163 C 63.325 63.98 63.237 64.098 63.146 64.214 z M 49.641 61.097 c 0.045 0.615 0.214 1.158 0.478 1.59 c -0.31 0.498 -0.5 1.145 -0.5 1.884 v 2.412 c 0 0.748 0.19 1.404 0.5 1.911 c -0.31 0.498 -0.5 1.146 -0.5 1.885 v 2.412 c 0 0.748 0.19 1.404 0.5 1.911 c -0.31 0.498 -0.5 1.146 -0.5 1.885 v 2.412 c 0 0.748 0.19 1.404 0.5 1.911 c -0.31 0.498 -0.5 1.145 -0.5 1.884 v 2.413 c 0 0.345 0.047 0.667 0.12 0.97 H 8.878 C 8.426 82.993 5.583 80.151 2 79.698 V 67.975 c 3.583 -0.453 6.426 -3.295 6.878 -6.878 H 49.641 z M 51.619 54.567 v -2.413 c 0 -0.451 0.13 -0.748 0.212 -0.865 H 75.65 c 0.082 0.116 0.212 0.414 0.212 0.865 v 2.413 c 0 0.495 -0.147 0.813 -0.235 0.93 H 52.102 c -0.033 -0.013 -0.059 -0.037 -0.094 -0.046 l -0.213 -0.055 C 51.712 55.239 51.619 54.962 51.619 54.567 z M 60.327 70.019 c -0.115 0.479 -0.206 0.966 -0.274 1.462 c -0.015 0.106 -0.036 0.21 -0.048 0.316 c -0.065 0.568 -0.107 1.143 -0.107 1.728 c 0 0.193 0.005 0.392 0.014 0.595 h -8.057 c -0.088 -0.116 -0.235 -0.435 -0.235 -0.93 v -2.412 c 0 -0.451 0.13 -0.749 0.212 -0.866 h 8.516 C 60.338 69.947 60.335 69.983 60.327 70.019 z M 51.619 79.398 v -2.412 c 0 -0.451 0.13 -0.749 0.212 -0.866 h 8.297 c 0.009 0.052 0.023 0.103 0.033 0.155 c 0.041 0.222 0.09 0.44 0.141 0.659 c 0.049 0.213 0.105 0.423 0.163 0.633 c 0.058 0.209 0.115 0.418 0.182 0.623 c 0.116 0.356 0.244 0.707 0.386 1.053 c 0.057 0.138 0.12 0.272 0.181 0.408 c 0.101 0.227 0.199 0.456 0.312 0.677 h -9.671 C 51.767 80.212 51.619 79.894 51.619 79.398 z M 75.862 45.947 v 2.413 c 0 0.495 -0.147 0.813 -0.235 0.93 H 51.854 c -0.088 -0.116 -0.235 -0.435 -0.235 -0.93 v -2.413 c 0 -0.451 0.13 -0.749 0.212 -0.866 H 75.65 C 75.732 45.198 75.862 45.496 75.862 45.947 z M 80.148 9.254 H 66.633 c 0.485 -3.294 3.331 -5.831 6.758 -5.831 S 79.663 5.96 80.148 9.254 z M 17.325 10.254 c 0 -3.767 3.064 -6.831 6.831 -6.831 h 43.646 c -1.978 1.621 -3.242 4.08 -3.242 6.831 v 32.827 H 51.7 c -1.187 0 -2.081 1.232 -2.081 2.866 v 2.413 c 0 0.129 0.015 0.25 0.026 0.373 L 22.333 32.702 c -0.115 -0.068 -0.241 -0.11 -0.371 -0.128 c -0.12 -0.016 -0.239 -0.006 -0.355 0.021 c -0.011 0.002 -0.022 -0.001 -0.032 0.002 c -0.007 0.002 -0.012 0.007 -0.019 0.009 c -0.118 0.033 -0.23 0.085 -0.329 0.159 c -0.105 0.079 -0.194 0.177 -0.262 0.293 l -3.517 5.992 c 0 0.001 0 0.001 -0.001 0.002 l -0.121 0.206 V 10.254 z M 22.183 34.933 l 4.195 2.462 c -1.619 1.925 -4.304 2.624 -6.657 1.733 L 22.183 34.933 z M 18.7 40.867 c 1.006 0.432 2.064 0.644 3.113 0.644 c 2.412 0 4.768 -1.101 6.304 -3.095 l 21.64 12.701 c -0.085 0.32 -0.137 0.667 -0.137 1.038 v 2.413 c 0 0.094 0.013 0.182 0.019 0.273 l -33.379 -8.605 c 0 0 -0.001 0 -0.001 -0.001 l -0.615 -0.158 L 18.7 40.867 z M 9.998 46.687 l 3.857 0.994 c 0.001 0 0.002 0.002 0.004 0.002 l 0.849 0.219 c -1.027 2.297 -3.41 3.703 -5.924 3.495 L 9.998 46.687 z M 8.279 53.353 c 0.335 0.043 0.668 0.064 1 0.064 c 3.211 0 6.155 -1.976 7.365 -5.017 l 33.233 8.568 c -0.16 0.41 -0.257 0.878 -0.257 1.394 v 0.734 H 7.948 h -1.15 L 8.279 53.353 z M 2 61.097 h 4.864 C 6.442 63.577 4.48 65.539 2 65.961 V 61.097 z M 2 86.576 v -4.864 c 2.48 0.422 4.442 2.384 4.864 4.864 H 2 z M 51.854 86.536 c -0.088 -0.116 -0.235 -0.435 -0.235 -0.93 v -2.413 c 0 -0.45 0.13 -0.748 0.212 -0.865 h 10.912 c 0.095 0.131 0.206 0.249 0.305 0.377 c 0.164 0.212 0.33 0.421 0.505 0.624 c 0.146 0.169 0.296 0.332 0.449 0.494 c 0.215 0.229 0.437 0.45 0.666 0.664 c 0.123 0.115 0.246 0.229 0.373 0.339 c 0.298 0.261 0.607 0.509 0.925 0.747 c 0.07 0.052 0.137 0.105 0.208 0.155 c 0.401 0.289 0.815 0.559 1.244 0.808 H 51.854 z M 74.949 86.576 c -0.249 0 -0.493 -0.024 -0.739 -0.037 c -0.001 0 -0.002 -0.001 -0.003 -0.001 c -2.515 -0.142 -4.917 -1.023 -6.921 -2.47 c -0.055 -0.04 -0.109 -0.081 -0.164 -0.122 c -0.309 -0.231 -0.605 -0.478 -0.893 -0.736 c -0.095 -0.086 -0.192 -0.17 -0.285 -0.259 c -0.243 -0.231 -0.473 -0.476 -0.698 -0.725 c -0.099 -0.111 -0.204 -0.216 -0.3 -0.33 c -0.291 -0.346 -0.568 -0.707 -0.823 -1.085 c -0.057 -0.085 -0.104 -0.176 -0.159 -0.262 c -0.206 -0.322 -0.402 -0.65 -0.579 -0.99 c -0.065 -0.125 -0.122 -0.254 -0.184 -0.381 c -0.155 -0.323 -0.3 -0.65 -0.428 -0.985 c -0.045 -0.116 -0.087 -0.233 -0.129 -0.351 c -0.13 -0.372 -0.244 -0.75 -0.34 -1.132 c -0.022 -0.088 -0.047 -0.174 -0.068 -0.263 c -0.109 -0.475 -0.196 -0.955 -0.251 -1.439 c 0 0 0 0 0 0 c -0.016 -0.146 -0.025 -0.278 -0.037 -0.416 c -0.029 -0.353 -0.054 -0.706 -0.054 -1.066 c 0 -0.401 0.025 -0.797 0.06 -1.189 c 0.019 -0.199 0.048 -0.397 0.076 -0.595 c 0.024 -0.174 0.049 -0.349 0.08 -0.521 c 0.048 -0.264 0.105 -0.526 0.169 -0.788 c 0.021 -0.086 0.044 -0.172 0.066 -0.258 c 0.081 -0.302 0.17 -0.604 0.274 -0.903 c 0.008 -0.023 0.017 -0.046 0.025 -0.069 c 0.185 -0.527 0.405 -1.039 0.653 -1.534 c 0.017 -0.033 0.032 -0.068 0.049 -0.101 c 0.256 -0.501 0.545 -0.983 0.862 -1.445 c 0.041 -0.06 0.088 -0.115 0.13 -0.174 c 0.258 -0.362 0.537 -0.707 0.831 -1.041 c 0.112 -0.127 0.224 -0.253 0.341 -0.375 c 0.294 -0.309 0.603 -0.603 0.927 -0.883 c 0.381 -0.328 0.774 -0.642 1.191 -0.925 c 0.053 -0.036 0.11 -0.068 0.164 -0.103 c 0.273 -0.18 0.552 -0.351 0.839 -0.51 c 0.127 -0.07 0.257 -0.133 0.385 -0.198 c 0.219 -0.112 0.439 -0.221 0.665 -0.321 c 0.166 -0.073 0.335 -0.14 0.504 -0.207 c 0.198 -0.078 0.398 -0.152 0.6 -0.22 c 0.185 -0.062 0.372 -0.121 0.56 -0.175 c 0.201 -0.058 0.405 -0.109 0.61 -0.157 c 0.187 -0.044 0.373 -0.088 0.562 -0.124 c 0.236 -0.045 0.475 -0.078 0.715 -0.109 c 0.16 -0.021 0.32 -0.048 0.481 -0.063 c 0.406 -0.038 0.815 -0.062 1.231 -0.062 c 0.333 0 0.66 0.025 0.987 0.05 c 0.25 0.022 0.506 0.047 0.79 0.087 c 0.002 0 0.003 -0.001 0.005 0 C 83.085 61.484 88 66.935 88 73.525 C 88 80.722 82.146 86.576 74.949 86.576 z" style="stroke: none; stroke-width: 1; stroke-dasharray: none; stroke-linecap: butt; stroke-linejoin: miter; stroke-miterlimit: 10; fill: rgb(0,0,0); fill-rule: nonzero; opacity: 1;" transform=" matrix(1 0 0 1 0 0) " stroke-linecap="round" />
	<path d="M 72.26 64.514 c -0.213 -0.511 -0.8 -0.749 -1.309 -0.537 c -1.25 0.522 -2.368 1.272 -3.323 2.228 c -0.956 0.957 -1.705 2.075 -2.228 3.323 c -0.213 0.51 0.027 1.096 0.537 1.309 c 0.126 0.053 0.257 0.077 0.386 0.077 c 0.391 0 0.763 -0.23 0.923 -0.614 c 0.421 -1.007 1.025 -1.909 1.796 -2.681 c 0.771 -0.771 1.672 -1.375 2.681 -1.796 C 72.232 65.609 72.473 65.023 72.26 64.514 z" style="stroke: none; stroke-width: 1; stroke-dasharray: none; stroke-linecap: butt; stroke-linejoin: miter; stroke-miterlimit: 10; fill: rgb(0,0,0); fill-rule: nonzero; opacity: 1;" transform=" matrix(1 0 0 1 0 0) " stroke-linecap="round" />
</g>
</svg>