<svg xmlns="http://www.w3.org/2000/svg" xmlns:xlink="http://www.w3.org/1999/xlink" version="1.1" width="256" height="256" viewBox="0 0 256 256" xml:space="preserve">

<defs>
</defs>
<g style="stroke: none; stroke-width: 0; stroke-dasharray: none; stroke-linecap: butt; stroke-linejoin: miter; stroke-miterlimit: 10; fill: none; fill-rule: nonzero; opacity: 1;" transform="translate(1.4065934065934016 1.4065934065934016) scale(2.81 2.81)" >
	<path d="M 75.419 62.055 c -4.884 0 -9.184 2.524 -11.683 6.331 L 27.625 49.969 c 0.591 -1.547 0.93 -3.217 0.93 -4.969 c 0 -1.757 -0.34 -3.432 -0.934 -4.982 c 0.038 -0.016 0.078 -0.023 0.116 -0.043 l 36 -18.36 c 2.499 3.807 6.799 6.331 11.683 6.331 c 7.704 0 13.973 -6.269 13.973 -13.973 S 83.123 0 75.419 0 S 61.446 6.268 61.446 13.973 c 0 1.752 0.338 3.422 0.929 4.968 L 26.373 37.302 c -0.037 0.019 -0.067 0.044 -0.102 0.066 c -2.498 -3.813 -6.801 -6.341 -11.69 -6.341 C 6.876 31.027 0.608 37.295 0.608 45 c 0 7.704 6.268 13.973 13.973 13.973 c 4.884 0 9.184 -2.523 11.683 -6.33 l 36.111 18.416 c -0.591 1.546 -0.929 3.217 -0.929 4.969 C 61.446 83.731 67.715 90 75.419 90 s 13.973 -6.269 13.973 -13.973 S 83.123 62.055 75.419 62.055 z M 75.419 3 c 6.051 0 10.973 4.922 10.973 10.973 c 0 6.051 -4.922 10.973 -10.973 10.973 s -10.973 -4.922 -10.973 -10.973 C 64.446 7.922 69.368 3 75.419 3 z M 14.581 55.973 c -6.05 0 -10.973 -4.922 -10.973 -10.973 c 0 -6.05 4.922 -10.973 10.973 -10.973 c 6.051 0 10.973 4.922 10.973 10.973 C 25.554 51.051 20.632 55.973 14.581 55.973 z M 75.419 87 c -6.051 0 -10.973 -4.922 -10.973 -10.973 s 4.922 -10.973 10.973 -10.973 s 10.973 4.922 10.973 10.973 S 81.47 87 75.419 87 z" style="stroke: none; stroke-width: 1; stroke-dasharray: none; stroke-linecap: butt; stroke-linejoin: miter; stroke-miterlimit: 10; fill: rgb(0,0,0); fill-rule: nonzero; opacity: 1;" transform=" matrix(1 0 0 1 0 0) " stroke-linecap="round" />
</g>
</svg>